<svg width="60" height="40" viewBox="0 0 60 40" fill="none" xmlns="http://www.w3.org/2000/svg">
<rect width="60" height="40" fill="#404040"/>
<path d="M19.375 31.25C18.875 31.25 18.4375 31.0625 18.0625 30.6875C17.6875 30.3125 17.5 29.875 17.5 29.375V14.375C17.5 13.875 17.6875 13.4375 18.0625 13.0625C18.4375 12.6875 18.875 12.5 19.375 12.5H25V9.375C25 8.875 25.1875 8.4375 25.5625 8.0625C25.9375 7.6875 26.375 7.5 26.875 7.5H33.125C33.625 7.5 34.0625 7.6875 34.4375 8.0625C34.8125 8.4375 35 8.875 35 9.375V12.5H40.625C41.125 12.5 41.5625 12.6875 41.9375 13.0625C42.3125 13.4375 42.5 13.875 42.5 14.375V29.375C42.5 29.875 42.3125 30.3125 41.9375 30.6875C41.5625 31.0625 41.125 31.25 40.625 31.25H19.375ZM19.375 29.375H40.625V14.375H19.375V29.375ZM26.875 12.5H33.125V9.375H26.875V12.5Z" fill="#b5b5b5"/>
</svg>
