<?xml version="1.0" encoding="UTF-8" standalone="no"?>
<svg
   viewBox="0 0 146.99499 59.073232"
   version="1.1"
   id="svg1228"
   sodipodi:docname="logo-tekst-monechrome.svg"
   width="146.995"
   height="59.073231"
   inkscape:version="1.1.2 (0a00cf5339, 2022-02-04, custom)"
   xmlns:inkscape="http://www.inkscape.org/namespaces/inkscape"
   xmlns:sodipodi="http://sodipodi.sourceforge.net/DTD/sodipodi-0.dtd"
   xmlns="http://www.w3.org/2000/svg"
   xmlns:svg="http://www.w3.org/2000/svg"
   xmlns:rdf="http://www.w3.org/1999/02/22-rdf-syntax-ns#"
   xmlns:cc="http://creativecommons.org/ns#"
   xmlns:dc="http://purl.org/dc/elements/1.1/">
  <sodipodi:namedview
     id="namedview1230"
     pagecolor="#ffffff"
     bordercolor="#666666"
     borderopacity="1.0"
     inkscape:pageshadow="2"
     inkscape:pageopacity="0.0"
     inkscape:pagecheckerboard="0"
     showgrid="false"
     inkscape:zoom="5.1614308"
     inkscape:cx="73.429252"
     inkscape:cy="28.577347"
     inkscape:window-width="1896"
     inkscape:window-height="1028"
     inkscape:window-x="12"
     inkscape:window-y="40"
     inkscape:window-maximized="1"
     inkscape:current-layer="svg1228" />
  <defs
     id="defs1166">
    <style
       id="style1164">.a{fill:none;stroke:#010101;stroke-miterlimit:10;stroke-width:3.5px;}</style>
  </defs>
  <title
     id="title1168">logo_tekst</title>
  <path
     d="m 28.68665,58.24546 v 0.76465 h -3.2461 v -5.61817 h 0.91309 v 4.85352 z"
     id="path1170" />
  <path
     d="m 30.38782,59.01011 h -0.917 v -5.61817 h 0.917 z"
     id="path1172" />
  <path
     d="m 36.37219,53.39194 v 5.61817 h -0.46387 a 0.36345,0.36345 0 0 1 -0.32031,-0.16016 l -3.08594,-3.96386 c 0.0078,0.07617 0.01368,0.15039 0.01758,0.2246 0.0039,0.07421 0.0059,0.14258 0.0059,0.20508 v 3.69434 H 31.7218 v -5.61817 h 0.47656 a 0.71478,0.71478 0 0 1 0.09864,0.0059 0.31281,0.31281 0 0 1 0.07617,0.02149 0.22934,0.22934 0 0 1 0.0664,0.04687 0.63873,0.63873 0 0 1 0.06641,0.07813 l 3.08984,3.96777 c -0.0078,-0.08105 -0.01367,-0.16015 -0.01757,-0.23828 -0.0039,-0.07813 -0.0059,-0.15039 -0.0059,-0.21875 v -3.66309 z"
     id="path1174" />
  <path
     d="m 39.755,57.03648 a 2.91264,2.91264 0 0 1 -0.11523,0.84765 1.748,1.748 0 0 1 -0.34375,0.64063 1.52494,1.52494 0 0 1 -0.56543,0.40527 2.00691,2.00691 0 0 1 -0.78223,0.14258 3.23707,3.23707 0 0 1 -0.40234,-0.0254 3.44651,3.44651 0 0 1 -0.41309,-0.0801 l 0.04688,-0.5459 a 0.20787,0.20787 0 0 1 0.06055,-0.125 0.19754,0.19754 0 0 1 0.14257,-0.0469 0.74075,0.74075 0 0 1 0.18067,0.0293 1.36451,1.36451 0 0 0 0.71387,-0.041 0.74724,0.74724 0 0 0 0.3125,-0.22071 0.98626,0.98626 0 0 0 0.1914,-0.38574 2.19538,2.19538 0 0 0 0.06445,-0.57226 v -3.667 H 39.755 Z"
     id="path1176" />
  <path
     d="m 44.54211,58.2728 -0.0039,0.73731 H 41.0343 v -5.61817 h 3.50391 v 0.73731 h -2.58692 v 1.69336 h 2.06739 v 0.71387 h -2.06739 v 1.73632 z"
     id="path1178" />
  <path
     d="m 46.44543,54.12925 v 1.79883 h 2.19629 v 0.7373 h -2.19629 v 2.34473 h -0.917 v -5.61817 h 3.50391 v 0.73731 z"
     id="path1180" />
  <path
     d="m 55.16907,56.20151 a 3.18181,3.18181 0 0 1 -0.20215,1.1504 2.6634,2.6634 0 0 1 -0.57227,0.90722 2.59685,2.59685 0 0 1 -0.88476,0.59473 3.1717,3.1717 0 0 1 -2.29492,0 2.62415,2.62415 0 0 1 -0.88672,-0.59473 2.65327,2.65327 0 0 1 -0.57422,-0.90722 3.37717,3.37717 0 0 1 0,-2.30176 2.67118,2.67118 0 0 1 0.57422,-0.90918 2.61491,2.61491 0 0 1 0.88672,-0.59668 3.17156,3.17156 0 0 1 2.29492,0 2.58781,2.58781 0 0 1 0.88476,0.59668 2.68144,2.68144 0 0 1 0.57227,0.90918 3.187,3.187 0 0 1 0.20215,1.15136 z m -0.93164,0 a 2.70589,2.70589 0 0 0 -0.13086,-0.87011 1.82108,1.82108 0 0 0 -0.375,-0.65528 1.63017,1.63017 0 0 0 -0.59082,-0.41406 2.16795,2.16795 0 0 0 -1.55664,0 1.65433,1.65433 0 0 0 -0.59278,0.41406 1.84225,1.84225 0 0 0 -0.3789,0.65528 2.92611,2.92611 0 0 0 0,1.74316 1.83775,1.83775 0 0 0 0.3789,0.6543 1.64243,1.64243 0 0 0 0.59278,0.40918 2.19564,2.19564 0 0 0 1.55664,0 1.6185,1.6185 0 0 0 0.59082,-0.40918 1.81661,1.81661 0 0 0 0.375,-0.6543 2.71591,2.71591 0 0 0 0.13086,-0.87305 z"
     id="path1182" />
  <path
     d="m 60.44348,59.01011 h -0.81543 a 0.377,0.377 0 0 1 -0.35156,-0.1875 L 57.96594,56.931 a 0.42661,0.42661 0 0 0 -0.14453,-0.14063 0.50284,0.50284 0 0 0 -0.23437,-0.043 H 57.0802 v 2.2627 h -0.91309 v -5.61813 h 1.6543 a 3.54424,3.54424 0 0 1 0.9541,0.11329 1.80633,1.80633 0 0 1 0.65723,0.32226 1.256,1.256 0 0 1 0.37988,0.501 1.76424,1.76424 0 0 1 0.03516,1.19726 1.50411,1.50411 0 0 1 -0.25293,0.46094 1.61314,1.61314 0 0 1 -0.4082,0.3584 2.04881,2.04881 0 0 1 -0.54981,0.23828 0.92336,0.92336 0 0 1 0.28906,0.28516 z M 57.798,56.08433 a 1.763,1.763 0 0 0 0.5459,-0.07617 1.11008,1.11008 0 0 0 0.39063,-0.2129 0.87888,0.87888 0 0 0 0.23437,-0.32519 1.10093,1.10093 0 0 0 0.07715,-0.41992 0.84276,0.84276 0 0 0 -0.30371,-0.70215 1.46527,1.46527 0 0 0 -0.9209,-0.24219 H 57.0802 v 1.97852 z"
     id="path1184" />
  <path
     d="m 64.63,58.2728 -0.0039,0.73731 h -3.50391 v -5.61817 h 3.50391 v 0.73731 h -2.58692 v 1.69336 h 2.06739 v 0.71387 h -2.06739 v 1.73632 z"
     id="path1186" />
  <path
     d="m 70.26672,53.39194 v 5.61817 h -0.46386 a 0.36345,0.36345 0 0 1 -0.32032,-0.16016 l -3.08593,-3.96386 c 0.0078,0.07617 0.01367,0.15039 0.01757,0.2246 0.0039,0.07421 0.0059,0.14258 0.0059,0.20508 v 3.69434 h -0.80371 v -5.61817 h 0.47657 a 0.71473,0.71473 0 0 1 0.09863,0.0059 0.31281,0.31281 0 0 1 0.07617,0.02149 0.22952,0.22952 0 0 1 0.06641,0.04687 0.63961,0.63961 0 0 1 0.0664,0.07813 l 3.08985,3.96777 c -0.008,-0.08105 -0.0137,-0.16015 -0.0176,-0.23828 -0.004,-0.07813 -0.006,-0.15039 -0.006,-0.21875 v -3.66309 z"
     id="path1188" />
  <path
     d="m 72.52161,59.01011 h -0.917 v -5.61817 h 0.917 z"
     id="path1190" />
  <path
     d="m 78.50745,53.39194 v 5.61817 h -0.46436 a 0.36342,0.36342 0 0 1 -0.32031,-0.16016 l -3.08594,-3.96386 c 0.008,0.07617 0.0137,0.15039 0.0176,0.2246 0.004,0.07421 0.006,0.14258 0.006,0.20508 v 3.69434 h -0.80371 v -5.61817 h 0.47656 a 0.71452,0.71452 0 0 1 0.0986,0.0059 0.31255,0.31255 0 0 1 0.0762,0.02149 0.22952,0.22952 0 0 1 0.0664,0.04687 0.63961,0.63961 0 0 1 0.0664,0.07813 l 3.08984,3.96777 c -0.008,-0.08105 -0.0137,-0.16015 -0.0176,-0.23828 -0.004,-0.07813 -0.006,-0.15039 -0.006,-0.21875 v -3.66309 z"
     id="path1192" />
  <path
     d="m 84.445,56.24448 v 2.22364 a 3.24425,3.24425 0 0 1 -1.9502,0.60449 3.419,3.419 0 0 1 -1.23535,-0.21289 2.72737,2.72737 0 0 1 -0.94141,-0.59278 2.59218,2.59218 0 0 1 -0.60156,-0.90722 3.0864,3.0864 0 0 1 -0.21,-1.15821 3.2353,3.2353 0 0 1 0.20215,-1.165 2.5484,2.5484 0 0 1 1.49414,-1.498 3.29189,3.29189 0 0 1 1.20215,-0.209 3.52509,3.52509 0 0 1 0.62988,0.05274 3.11559,3.11559 0 0 1 0.54,0.14648 2.53543,2.53543 0 0 1 0.84668,0.52246 l -0.26074,0.418 a 0.26543,0.26543 0 0 1 -0.16016,0.1211 0.27377,0.27377 0 0 1 -0.21094,-0.04688 c -0.0752,-0.04492 -0.15527,-0.09082 -0.24023,-0.14062 a 2.01135,2.01135 0 0 0 -0.29,-0.13868 2.12782,2.12782 0 0 0 -0.37891,-0.10546 2.7257,2.7257 0 0 0 -0.50683,-0.041 2.09453,2.09453 0 0 0 -0.80176,0.14648 1.70185,1.70185 0 0 0 -0.61035,0.418 1.847,1.847 0 0 0 -0.39063,0.65723 2.57658,2.57658 0 0 0 -0.13672,0.8623 2.62325,2.62325 0 0 0 0.14453,0.89844 1.88735,1.88735 0 0 0 0.41016,0.67188 1.7477,1.7477 0 0 0 0.6416,0.41894 2.5566,2.5566 0 0 0 1.459,0.0703 2.80281,2.80281 0 0 0 0.53222,-0.207 V 56.9388 H 82.83754 A 0.19287,0.19287 0 0 1 82.6979,56.88997 0.16848,0.16848 0 0 1 82.6471,56.76302 v -0.51856 z"
     id="path1194" />
  <path
     d="m 89.03381,58.2728 -0.004,0.73731 H 85.526 v -5.61817 h 3.50391 v 0.73731 H 86.443 v 1.69336 h 2.06739 v 0.71387 H 86.443 v 1.73632 z"
     id="path1196" />
  <path
     d="m 94.67053,53.39194 v 5.61817 h -0.46387 a 0.36345,0.36345 0 0 1 -0.32031,-0.16016 l -3.08594,-3.96386 c 0.008,0.07617 0.0137,0.15039 0.0176,0.2246 0.004,0.07421 0.006,0.14258 0.006,0.20508 v 3.69434 H 90.0203 v -5.61817 h 0.47656 a 0.71478,0.71478 0 0 1 0.0986,0.0059 0.31281,0.31281 0 0 1 0.0762,0.02149 0.22934,0.22934 0 0 1 0.0664,0.04687 0.63873,0.63873 0 0 1 0.0664,0.07813 l 3.08984,3.96777 c -0.008,-0.08105 -0.0137,-0.16015 -0.0176,-0.23828 -0.004,-0.07813 -0.006,-0.15039 -0.006,-0.21875 v -3.66309 z"
     id="path1198" />
  <path
     d="m 98.8678,54.12925 v 1.79883 h 2.19629 v 0.7373 H 98.8678 v 2.34473 h -0.917 v -5.61817 h 3.5039 v 0.73731 z"
     id="path1200" />
  <path
     d="m 107.59143,56.20151 a 3.18159,3.18159 0 0 1 -0.20215,1.1504 2.66353,2.66353 0 0 1 -0.57226,0.90722 2.597,2.597 0 0 1 -0.88477,0.59473 3.1717,3.1717 0 0 1 -2.29492,0 2.62415,2.62415 0 0 1 -0.88672,-0.59473 2.65327,2.65327 0 0 1 -0.57422,-0.90722 3.37717,3.37717 0 0 1 0,-2.30176 2.67118,2.67118 0 0 1 0.57422,-0.90918 2.61491,2.61491 0 0 1 0.88672,-0.59668 3.17156,3.17156 0 0 1 2.29492,0 2.588,2.588 0 0 1 0.88477,0.59668 2.68157,2.68157 0 0 1 0.57226,0.90918 3.18683,3.18683 0 0 1 0.20215,1.15136 z m -0.93164,0 a 2.70589,2.70589 0 0 0 -0.13086,-0.87011 1.82079,1.82079 0 0 0 -0.375,-0.65528 1.63009,1.63009 0 0 0 -0.59082,-0.41406 2.16795,2.16795 0 0 0 -1.55664,0 1.65421,1.65421 0 0 0 -0.59277,0.41406 1.84227,1.84227 0 0 0 -0.37891,0.65528 2.92632,2.92632 0 0 0 0,1.74316 1.83776,1.83776 0 0 0 0.37891,0.6543 1.6423,1.6423 0 0 0 0.59277,0.40918 2.19564,2.19564 0 0 0 1.55664,0 1.61841,1.61841 0 0 0 0.59082,-0.40918 1.81632,1.81632 0 0 0 0.375,-0.6543 2.71591,2.71591 0 0 0 0.13086,-0.87305 z"
     id="path1202" />
  <path
     d="m 112.86682,59.01011 h -0.81543 a 0.377,0.377 0 0 1 -0.35156,-0.1875 l -1.31055,-1.8916 a 0.42661,0.42661 0 0 0 -0.14453,-0.14063 0.50284,0.50284 0 0 0 -0.23437,-0.043 h -0.50684 v 2.2627 h -0.91309 v -5.61814 h 1.6543 a 3.54424,3.54424 0 0 1 0.9541,0.11329 1.80633,1.80633 0 0 1 0.65723,0.32226 1.256,1.256 0 0 1 0.37988,0.501 1.76424,1.76424 0 0 1 0.0352,1.19726 1.50411,1.50411 0 0 1 -0.25293,0.46094 1.613,1.613 0 0 1 -0.40821,0.3584 2.04861,2.04861 0 0 1 -0.5498,0.23828 0.92336,0.92336 0 0 1 0.28906,0.28516 z m -2.64551,-2.92578 a 1.763,1.763 0 0 0 0.5459,-0.07617 1.11008,1.11008 0 0 0 0.39063,-0.2129 0.87888,0.87888 0 0 0 0.23437,-0.32519 1.10093,1.10093 0 0 0 0.0771,-0.41992 0.84276,0.84276 0 0 0 -0.30371,-0.70215 1.46527,1.46527 0 0 0 -0.9209,-0.24219 h -0.74121 v 1.97852 z"
     id="path1204" />
  <path
     d="m 116.40491,59.01011 h -0.917 v -5.61817 h 0.917 z"
     id="path1206" />
  <path
     d="m 121.6051,54.15269 h -1.75195 v 4.85742 h -0.9082 v -4.85742 h -1.75586 v -0.76075 h 4.416 z"
     id="path1208" />
  <polyline
     class="a"
     points="47.838 98.167 33.156 98.167 33.156 83.362"
     id="polyline1210"
     transform="translate(-31.364,-41.908)" />
  <polyline
     class="a"
     points="33.114 57.89 33.114 43.658 47.795 43.658"
     id="polyline1212"
     transform="translate(-31.364,-41.908)" />
  <polyline
     class="a"
     points="176.603 58.346 176.603 43.665 161.921 43.665"
     id="polyline1214"
     transform="translate(-31.364,-41.908)" />
  <path
     d="m 29.78628,39.97487 v 4.12842 H 12.26089 V 13.77174 h 4.92871 v 26.20313 z"
     id="path1216" />
  <path
     d="m 61.297,28.93776 a 17.15964,17.15964 0 0 1 -1.09473,6.21338 14.35958,14.35958 0 0 1 -3.08594,4.89746 14.09079,14.09079 0 0 1 -4.78125,3.21191 17.12873,17.12873 0 0 1 -12.38574,0 13.98317,13.98317 0 0 1 -7.88867,-8.10937 18.18146,18.18146 0 0 1 0,-12.42725 14.39129,14.39129 0 0 1 3.09668,-4.90771 14.13148,14.13148 0 0 1 4.792,-3.22315 17.13563,17.13563 0 0 1 12.38574,0 14.02026,14.02026 0 0 1 4.78125,3.22315 14.47029,14.47029 0 0 1 3.08594,4.90771 17.1623,17.1623 0 0 1 1.09472,6.21387 z m -5.03418,0 a 14.62587,14.62587 0 0 0 -0.70508,-4.69727 9.9446,9.9446 0 0 0 -2.02246,-3.53906 8.80549,8.80549 0 0 0 -3.19139,-2.23243 11.719,11.719 0 0 0 -8.40429,0 8.90077,8.90077 0 0 0 -3.20117,2.23242 9.96735,9.96735 0 0 0 -2.043,3.53906 15.81644,15.81644 0 0 0 0,9.415 9.847,9.847 0 0 0 2.043,3.52832 8.85094,8.85094 0 0 0 3.20117,2.21192 11.8721,11.8721 0 0 0 8.40429,0 8.75626,8.75626 0 0 0 3.19141,-2.21192 9.82454,9.82454 0 0 0 2.02246,-3.52832 14.69366,14.69366 0 0 0 0.70508,-4.71772 z"
     id="path1218" />
  <path
     d="m 91.5226,29.16921 v 12.00634 a 17.53536,17.53536 0 0 1 -10.53125,3.26465 18.4151,18.4151 0 0 1 -6.667,-1.148 14.80239,14.80239 0 0 1 -5.08691,-3.20166 14.015,14.015 0 0 1 -3.24317,-4.897 16.69125,16.69125 0 0 1 -1.13769,-6.25586 17.42935,17.42935 0 0 1 1.09473,-6.2876 13.74023,13.74023 0 0 1 8.06738,-8.08838 17.72241,17.72241 0 0 1 6.48828,-1.127 19.10447,19.10447 0 0 1 3.40137,0.28418 16.85244,16.85244 0 0 1 2.917,0.79 13.68442,13.68442 0 0 1 2.48633,1.22168 13.95372,13.95372 0 0 1 2.085,1.60058 l -1.41113,2.25391 a 1.40225,1.40225 0 0 1 -0.86426,0.65283 1.47779,1.47779 0 0 1 -1.13672,-0.25244 q -0.6123,-0.35816 -1.2959,-0.7583 a 11.33089,11.33089 0 0 0 -1.56934,-0.748 11.53435,11.53435 0 0 0 -2.043,-0.56836 14.78346,14.78346 0 0 0 -2.73829,-0.22119 11.32145,11.32145 0 0 0 -4.32812,0.78955 9.26765,9.26765 0 0 0 -3.29688,2.25391 9.99172,9.99172 0 0 0 -2.10644,3.54932 13.90256,13.90256 0 0 0 -0.73731,4.65527 14.11727,14.11727 0 0 0 0.7793,4.855 10.1425,10.1425 0 0 0 2.21192,3.62305 9.43407,9.43407 0 0 0 3.46484,2.26416 13.81975,13.81975 0 0 0 7.87793,0.3789 15.14842,15.14842 0 0 0 2.875,-1.11621 v -6.02382 h -4.2334 a 1.04883,1.04883 0 0 1 -0.75879,-0.26367 0.90554,0.90554 0 0 1 -0.27344,-0.68458 v -2.80126 z"
     id="path1220" />
  <path
     d="M 102.30776,44.10329 H 97.35757 V 13.77174 h 4.95019 z"
     id="path1222" />
  <path
     d="m 134.61928,13.77174 v 30.33155 h -2.50683 a 2.14219,2.14219 0 0 1 -0.96875,-0.2002 2.26108,2.26108 0 0 1 -0.75879,-0.66357 L 113.72378,21.83913 q 0.063,0.61083 0.0947,1.21093 0.0322,0.6006 0.0322,1.106 v 19.94723 h -4.33984 V 13.77174 h 2.57031 a 3.89249,3.89249 0 0 1 0.53711,0.03174 1.53274,1.53274 0 0 1 0.41015,0.11573 1.18934,1.18934 0 0 1 0.3584,0.25292 4.019,4.019 0 0 1 0.3584,0.4209 l 16.68164,21.42188 q -0.063,-0.65259 -0.0947,-1.28467 -0.0308,-0.63209 -0.0312,-1.17969 V 13.77174 Z"
     id="path1224" />
  <polyline
     class="a"
     points="161.927 98.229 176.609 98.229 176.609 83.547"
     id="polyline1226"
     transform="translate(-31.364,-41.908)" />
  <metadata
     id="metadata1232">
    <rdf:RDF>
      <cc:Work
         rdf:about="">
        <dc:title>logo_tekst</dc:title>
      </cc:Work>
    </rdf:RDF>
  </metadata>
</svg>
