<?xml version="1.0" encoding="UTF-8" standalone="no"?>
<svg
   viewBox="0 0 147.02299 57.978002"
   version="1.1"
   id="svg381"
   sodipodi:docname="logo-white.svg"
   width="147.02299"
   height="57.978001"
   inkscape:version="1.1.1 (3bf5ae0d25, 2021-09-20, custom)"
   xmlns:inkscape="http://www.inkscape.org/namespaces/inkscape"
   xmlns:sodipodi="http://sodipodi.sourceforge.net/DTD/sodipodi-0.dtd"
   xmlns="http://www.w3.org/2000/svg"
   xmlns:svg="http://www.w3.org/2000/svg">
  <sodipodi:namedview
     id="namedview383"
     pagecolor="#505050"
     bordercolor="#eeeeee"
     borderopacity="1"
     inkscape:pageshadow="0"
     inkscape:pageopacity="0"
     inkscape:pagecheckerboard="0"
     showgrid="false"
     inkscape:zoom="5.7211611"
     inkscape:cx="104.87382"
     inkscape:cy="70.440247"
     inkscape:window-width="1920"
     inkscape:window-height="1062"
     inkscape:window-x="0"
     inkscape:window-y="18"
     inkscape:window-maximized="1"
     inkscape:current-layer="svg381" />
  <defs
     id="defs359">
    <style
       id="style357">.a{fill:none;stroke:#f0802a;stroke-miterlimit:10;stroke-width:3.5px;}.b{fill:#fff;}</style>
  </defs>
  <title
     id="title361">logo</title>
  <polyline
     class="a"
     points="47.871 98.1 33.189 98.1 33.189 83.418"
     id="polyline363"
     transform="translate(-31.392,-41.894)" />
  <polyline
     class="a"
     points="33.142 58.326 33.142 43.644 47.824 43.644"
     id="polyline365"
     transform="translate(-31.392,-41.894)" />
  <polyline
     class="a"
     points="161.983 98.122 176.665 98.122 176.665 83.44"
     id="polyline367"
     transform="translate(-31.392,-41.894)" />
  <polyline
     class="a"
     points="176.665 58.372 176.665 43.69 161.983 43.69"
     id="polyline369"
     transform="translate(-31.392,-41.894)" />
  <path
     class="b"
     d="m 30.02449,40.19351 v 4.12842 H 12.4991 V 13.99038 h 4.92871 v 26.20313 z"
     id="path371" />
  <path
     class="b"
     d="m 61.53523,29.1564 a 17.15942,17.15942 0 0 1 -1.09473,6.21338 14.35971,14.35971 0 0 1 -3.08593,4.89746 14.091,14.091 0 0 1 -4.78125,3.21191 17.1289,17.1289 0 0 1 -12.38575,0 13.98317,13.98317 0 0 1 -7.88867,-8.10937 18.18161,18.18161 0 0 1 0,-12.42725 14.39119,14.39119 0 0 1 3.09668,-4.90771 14.13157,14.13157 0 0 1 4.792,-3.22315 17.13565,17.13565 0 0 1 12.38575,0 14.02046,14.02046 0 0 1 4.78125,3.22315 14.47032,14.47032 0 0 1 3.08593,4.90771 17.16209,17.16209 0 0 1 1.09472,6.21387 z m -5.03418,0 a 14.62587,14.62587 0 0 0 -0.70508,-4.69727 9.9446,9.9446 0 0 0 -2.02246,-3.53906 8.80545,8.80545 0 0 0 -3.1914,-2.23242 11.719,11.719 0 0 0 -8.4043,0 8.90077,8.90077 0 0 0 -3.20117,2.23242 9.96735,9.96735 0 0 0 -2.043,3.53906 15.81644,15.81644 0 0 0 0,9.415 9.847,9.847 0 0 0 2.043,3.52832 8.85094,8.85094 0 0 0 3.20117,2.21192 11.87213,11.87213 0 0 0 8.4043,0 8.75623,8.75623 0 0 0 3.1914,-2.21192 9.82454,9.82454 0 0 0 2.02249,-3.52828 14.69371,14.69371 0 0 0 0.70505,-4.71777 z"
     id="path373" />
  <path
     class="b"
     d="m 91.76082,29.38784 v 12.00635 a 17.5354,17.5354 0 0 1 -10.53125,3.26465 18.41512,18.41512 0 0 1 -6.667,-1.148 14.80254,14.80254 0 0 1 -5.08691,-3.20166 14.0148,14.0148 0 0 1 -3.24316,-4.897 16.691,16.691 0 0 1 -1.1377,-6.25586 17.42935,17.42935 0 0 1 1.09473,-6.2876 13.74023,13.74023 0 0 1 8.06738,-8.08838 17.7222,17.7222 0 0 1 6.48828,-1.127 19.10354,19.10354 0 0 1 3.40137,0.28418 16.85244,16.85244 0 0 1 2.917,0.79 13.68442,13.68442 0 0 1 2.48633,1.22168 13.95372,13.95372 0 0 1 2.085,1.60058 l -1.41113,2.25391 a 1.40229,1.40229 0 0 1 -0.86426,0.65283 1.47784,1.47784 0 0 1 -1.13672,-0.25244 q -0.6123,-0.35816 -1.2959,-0.7583 a 11.33129,11.33129 0 0 0 -1.56933,-0.748 11.53387,11.53387 0 0 0 -2.043,-0.56836 14.78335,14.78335 0 0 0 -2.73828,-0.22119 11.32128,11.32128 0 0 0 -4.32813,0.78955 9.26752,9.26752 0 0 0 -3.29687,2.25391 9.99164,9.99164 0 0 0 -2.10645,3.54931 13.90267,13.90267 0 0 0 -0.7373,4.65528 14.11731,14.11731 0 0 0 0.77929,4.855 10.1425,10.1425 0 0 0 2.21192,3.62305 9.43419,9.43419 0 0 0 3.46484,2.26416 13.81975,13.81975 0 0 0 7.87793,0.3789 15.14816,15.14816 0 0 0 2.875,-1.11621 v -6.02383 h -4.2334 a 1.04883,1.04883 0 0 1 -0.75879,-0.26367 0.90553,0.90553 0 0 1 -0.27343,-0.68457 v -2.80127 z"
     id="path375" />
  <path
     class="b"
     d="M 102.546,44.32193 H 97.59581 V 13.99038 h 4.95019 z"
     id="path377" />
  <path
     class="b"
     d="m 134.8575,13.99038 v 30.33155 h -2.50684 a 2.14219,2.14219 0 0 1 -0.96875,-0.2002 2.26108,2.26108 0 0 1 -0.75879,-0.66357 L 113.962,22.05777 q 0.063,0.61083 0.0947,1.21093 0.0322,0.60058 0.0322,1.106 v 19.94723 h -4.33985 V 13.99038 h 2.57031 a 3.89092,3.89092 0 0 1 0.53711,0.03174 1.53328,1.53328 0 0 1 0.41016,0.11572 1.18964,1.18964 0 0 1 0.35839,0.25293 4.01792,4.01792 0 0 1 0.3584,0.4209 l 16.68164,21.42188 q -0.063,-0.65259 -0.0947,-1.28467 -0.0308,-0.63208 -0.0312,-1.17969 V 13.99038 Z"
     id="path379" />
</svg>
