<?xml version="1.0" encoding="UTF-8" standalone="no"?>
<svg
   viewBox="0 0 147.007 57.942003"
   version="1.1"
   id="svg153"
   sodipodi:docname="logo.svg"
   width="147.007"
   height="57.942001"
   inkscape:version="1.1.1 (3bf5ae0d25, 2021-09-20, custom)"
   xmlns:inkscape="http://www.inkscape.org/namespaces/inkscape"
   xmlns:sodipodi="http://sodipodi.sourceforge.net/DTD/sodipodi-0.dtd"
   xmlns="http://www.w3.org/2000/svg"
   xmlns:svg="http://www.w3.org/2000/svg"
   xmlns:rdf="http://www.w3.org/1999/02/22-rdf-syntax-ns#"
   xmlns:cc="http://creativecommons.org/ns#"
   xmlns:dc="http://purl.org/dc/elements/1.1/">
  <sodipodi:namedview
     id="namedview155"
     pagecolor="#505050"
     bordercolor="#eeeeee"
     borderopacity="1"
     inkscape:pageshadow="0"
     inkscape:pageopacity="0"
     inkscape:pagecheckerboard="0"
     showgrid="false"
     inkscape:zoom="6.0772829"
     inkscape:cx="125.87862"
     inkscape:cy="37.516766"
     inkscape:window-width="1920"
     inkscape:window-height="1062"
     inkscape:window-x="0"
     inkscape:window-y="18"
     inkscape:window-maximized="1"
     inkscape:current-layer="svg153" />
  <defs
     id="defs131">
    <style
       id="style129">.a{fill:none;stroke:#f0802a;stroke-miterlimit:10;stroke-width:3.5px;}.b{fill:#010101;}</style>
  </defs>
  <title
     id="title133">logo</title>
  <polyline
     class="a"
     points="47.95 97.156 33.268 97.156 33.268 82.474"
     id="polyline135"
     transform="translate(-31.419,-40.964)" />
  <polyline
     class="a"
     points="33.169 57.396 33.169 42.714 47.851 42.714"
     id="polyline137"
     transform="translate(-31.419,-40.964)" />
  <polyline
     class="a"
     points="161.951 97.113 176.632 97.113 176.632 82.432"
     id="polyline139"
     transform="translate(-31.419,-40.964)" />
  <polyline
     class="a"
     points="176.676 57.454 176.676 42.772 161.994 42.772"
     id="polyline141"
     transform="translate(-31.419,-40.964)" />
  <path
     class="b"
     d="m 29.97287,40.03084 v 4.12841 H 12.44748 V 13.82771 h 4.92871 v 26.20313 z"
     id="path143" />
  <path
     class="b"
     d="m 61.48362,28.99373 a 17.15964,17.15964 0 0 1 -1.09473,6.21338 14.35958,14.35958 0 0 1 -3.08589,4.89746 14.091,14.091 0 0 1 -4.78125,3.21191 17.12887,17.12887 0 0 1 -12.38574,0 13.98317,13.98317 0 0 1 -7.88867,-8.10937 18.18146,18.18146 0 0 1 0,-12.42725 14.391,14.391 0 0 1 3.09666,-4.90771 14.13148,14.13148 0 0 1 4.792,-3.22315 17.13563,17.13563 0 0 1 12.38574,0 14.02046,14.02046 0 0 1 4.78126,3.22315 14.47019,14.47019 0 0 1 3.08594,4.90771 17.1623,17.1623 0 0 1 1.09468,6.21387 z m -5.03418,0 A 14.62615,14.62615 0 0 0 55.74436,24.29646 9.94475,9.94475 0 0 0 53.7219,20.7574 8.80549,8.80549 0 0 0 50.53049,18.525 a 11.719,11.719 0 0 0 -8.4043,0 8.90086,8.90086 0 0 0 -3.20119,2.2324 9.96765,9.96765 0 0 0 -2.043,3.53906 15.81665,15.81665 0 0 0 0,9.415 9.84727,9.84727 0 0 0 2.043,3.52832 8.851,8.851 0 0 0 3.20117,2.21192 11.87213,11.87213 0 0 0 8.4043,0 8.75626,8.75626 0 0 0 3.19141,-2.21192 9.82468,9.82468 0 0 0 2.02246,-3.52832 14.694,14.694 0 0 0 0.7051,-4.71773 z"
     id="path145" />
  <path
     class="b"
     d="m 91.7092,29.22517 v 12.00635 a 17.53538,17.53538 0 0 1 -10.5312,3.26465 18.41524,18.41524 0 0 1 -6.667,-1.148 14.80235,14.80235 0 0 1 -5.08691,-3.20166 14.01491,14.01491 0 0 1 -3.24317,-4.897 16.691,16.691 0 0 1 -1.13769,-6.25586 17.42956,17.42956 0 0 1 1.09472,-6.2876 13.74021,13.74021 0 0 1 8.06739,-8.08838 17.72216,17.72216 0 0 1 6.48828,-1.127 19.10334,19.10334 0 0 1 3.40136,0.28418 16.85256,16.85256 0 0 1 2.917,0.79 13.68432,13.68432 0 0 1 2.48632,1.22168 13.9533,13.9533 0 0 1 2.085,1.60058 l -1.41114,2.25391 a 1.40226,1.40226 0 0 1 -0.86426,0.65283 1.47781,1.47781 0 0 1 -1.13671,-0.25244 q -0.61231,-0.35816 -1.2959,-0.7583 a 11.33144,11.33144 0 0 0 -1.56934,-0.74805 11.53363,11.53363 0 0 0 -2.043,-0.56836 14.78335,14.78335 0 0 0 -2.73828,-0.22119 11.32123,11.32123 0 0 0 -4.32812,0.78955 9.26765,9.26765 0 0 0 -3.29688,2.25391 9.99177,9.99177 0 0 0 -2.10644,3.54931 13.90266,13.90266 0 0 0 -0.73731,4.65528 14.11731,14.11731 0 0 0 0.7793,4.855 10.14235,10.14235 0 0 0 2.21191,3.623 9.43421,9.43421 0 0 0 3.46485,2.26417 13.81975,13.81975 0 0 0 7.87793,0.3789 15.14842,15.14842 0 0 0 2.875,-1.11621 v -6.02374 h -4.2334 a 1.04883,1.04883 0 0 1 -0.75879,-0.26367 0.9055,0.9055 0 0 1 -0.27344,-0.68457 v -2.80127 z"
     id="path147" />
  <path
     class="b"
     d="m 102.49436,44.15925 h -4.9502 V 13.82771 h 4.9502 z"
     id="path149" />
  <path
     class="b"
     d="m 134.80588,13.82771 v 30.33154 h -2.50683 a 2.14219,2.14219 0 0 1 -0.96875,-0.20019 2.261,2.261 0 0 1 -0.75879,-0.66357 l -16.66114,-21.4004 q 0.063,0.61084 0.0947,1.21094 0.0322,0.60058 0.0322,1.106 v 19.94722 h -4.33985 V 13.82771 h 2.57032 a 3.89076,3.89076 0 0 1 0.5371,0.03174 1.53317,1.53317 0 0 1 0.41016,0.11572 1.18981,1.18981 0 0 1 0.3584,0.25293 4.02033,4.02033 0 0 1 0.3584,0.4209 l 16.68164,21.42188 q -0.063,-0.65259 -0.0947,-1.28467 -0.0308,-0.63209 -0.0312,-1.17969 V 13.82771 Z"
     id="path151" />
  <metadata
     id="metadata281">
    <rdf:RDF>
      <cc:Work
         rdf:about="">
        <dc:title>logo</dc:title>
      </cc:Work>
    </rdf:RDF>
  </metadata>
</svg>
